<?xml version="1.0" encoding="utf-8"?>
<!-- Generator: Adobe Illustrator 25.2.0, SVG Export Plug-In . SVG Version: 6.00 Build 0)  -->
<svg version="1.1" id="Layer_1" xmlns="http://www.w3.org/2000/svg" xmlns:xlink="http://www.w3.org/1999/xlink" x="0px" y="0px"
	 viewBox="0 0 1000 1000" style="enable-background:new 0 0 1000 1000;" xml:space="preserve">
<style type="text/css">
	.st0{fill:#E2231A;}
	.st1{fill:none;}
</style>
<g transform="translate(80,80)">
	<g transform="translate(320,0) scale(0.08,0.08)">
		<g transform="">
			<path class="st0" d="M-961.5-788.5c0,42.9,0,123.2,0,171.5c0,23.9,0,40,0,40v17.5v29.5v30h423v-30v-29.5V-577c0,0,0-16.2,0-40
				c0-51.3,0-137.8,0-171.5c0-116.8-94.7-211.5-211.5-211.5C-866.8-1000-961.5-905.3-961.5-788.5z"/>
		</g>
	</g>
	<g transform="translate(360,0) scale(0.08,0.08)">
		<g transform="">
			<path class="st0" d="M-961.5-788.5c0,42.9,0,123.2,0,171.5c0,23.9,0,40,0,40v17.5v29.5v30h423v-30v-29.5V-577c0,0,0-16.2,0-40
				c0-51.3,0-137.8,0-171.5c0-116.8-94.7-211.5-211.5-211.5C-866.8-1000-961.5-905.3-961.5-788.5z"/>
		</g>
	</g>
	<g transform="translate(400,0) scale(0.08,0.08)">
		<g transform="">
			<path class="st0" d="M-961.5-788.5c0,42.9,0,123.2,0,171.5c0,23.9,0,40,0,40v17.5v29.5v30h423v-30v-29.5V-577c0,0,0-16.2,0-40
				c0-51.3,0-137.8,0-171.5c0-116.8-94.7-211.5-211.5-211.5C-866.8-1000-961.5-905.3-961.5-788.5z"/>
		</g>
	</g>
	<g transform="translate(480,0) scale(0.08,0.08)">
		<g transform="">
			<path class="st0" d="M-750-961.5c116.8,0,211.5,94.7,211.5,211.5c0,116.8-94.7,211.5-211.5,211.5
				c-116.8,0-211.5-94.7-211.5-211.5C-961.5-866.8-866.8-961.5-750-961.5z"/>
		</g>
	</g>
	<g transform="translate(520,0) scale(0.08,0.08)">
		<g transform="">
			<path class="st0" d="M-750-961.5c116.8,0,211.5,94.7,211.5,211.5c0,116.8-94.7,211.5-211.5,211.5
				c-116.8,0-211.5-94.7-211.5-211.5C-961.5-866.8-866.8-961.5-750-961.5z"/>
		</g>
	</g>
	<g transform="translate(560,0) scale(0.08,0.08)">
		<g transform="">
			<path class="st0" d="M-961.5-788.5c0,42.9,0,123.2,0,171.5c0,23.9,0,40,0,40v17.5v29.5v30h423v-30v-29.5V-577c0,0,0-16.2,0-40
				c0-51.3,0-137.8,0-171.5c0-116.8-94.7-211.5-211.5-211.5C-866.8-1000-961.5-905.3-961.5-788.5z"/>
		</g>
	</g>
	<g transform="translate(320,40) scale(0.08,0.08)">
		<g transform="">
			<polygon class="st0" points="-961.5,-750 -961.5,-500 -538.5,-500 -538.5,-750 -538.5,-1000 -961.5,-1000 			"/>
		</g>
	</g>
	<g transform="translate(360,40) scale(0.08,0.08)">
		<g transform="">
			<path class="st0" d="M-538.5-711.5c0-42.9,0-123.2,0-171.5c0-23.9,0-40,0-40v-17.5V-970v-30h-423v30v29.5v17.5c0,0,0,16.2,0,40
				c0,51.3,0,137.8,0,171.5c0,116.8,94.7,211.5,211.5,211.5C-633.2-500-538.5-594.7-538.5-711.5z"/>
		</g>
	</g>
	<g transform="translate(400,40) scale(0.08,0.08)">
		<g transform="">
			<path class="st0" d="M-538.5-711.5c0-42.9,0-123.2,0-171.5c0-23.9,0-40,0-40v-17.5V-970v-30h-423v30v29.5v17.5c0,0,0,16.2,0,40
				c0,51.3,0,137.8,0,171.5c0,116.8,94.7,211.5,211.5,211.5C-633.2-500-538.5-594.7-538.5-711.5z"/>
		</g>
	</g>
	<g transform="translate(560,40) scale(0.08,0.08)">
		<g transform="">
			<polygon class="st0" points="-961.5,-750 -961.5,-500 -538.5,-500 -538.5,-750 -538.5,-1000 -961.5,-1000 			"/>
		</g>
	</g>
	<g transform="translate(320,80) scale(0.08,0.08)">
		<g transform="">
			<path class="st0" d="M-538.5-711.5c0-42.9,0-123.2,0-171.5c0-23.9,0-40,0-40v-17.5V-970v-30h-423v30v29.5v17.5c0,0,0,16.2,0,40
				c0,51.3,0,137.8,0,171.5c0,116.8,94.7,211.5,211.5,211.5C-633.2-500-538.5-594.7-538.5-711.5z"/>
		</g>
	</g>
	<g transform="translate(440,80) scale(0.08,0.08)">
		<g transform="">
			<path class="st0" d="M-750-961.5c116.8,0,211.5,94.7,211.5,211.5c0,116.8-94.7,211.5-211.5,211.5
				c-116.8,0-211.5-94.7-211.5-211.5C-961.5-866.8-866.8-961.5-750-961.5z"/>
		</g>
	</g>
	<g transform="translate(480,80) scale(0.08,0.08)">
		<g transform="">
			<path class="st0" d="M-961.5-788.5c0,42.9,0,123.2,0,171.5c0,23.9,0,40,0,40v17.5v29.5v30h423v-30v-29.5V-577c0,0,0-16.2,0-40
				c0-51.3,0-137.8,0-171.5c0-116.8-94.7-211.5-211.5-211.5C-866.8-1000-961.5-905.3-961.5-788.5z"/>
		</g>
	</g>
	<g transform="translate(520,80) scale(0.08,0.08)">
		<g transform="">
			<path class="st0" d="M-961.5-788.5c0,42.9,0,123.2,0,171.5c0,23.9,0,40,0,40v17.5v29.5v30h423v-30v-29.5V-577c0,0,0-16.2,0-40
				c0-51.3,0-137.8,0-171.5c0-116.8-94.7-211.5-211.5-211.5C-866.8-1000-961.5-905.3-961.5-788.5z"/>
		</g>
	</g>
	<g transform="translate(560,80) scale(0.08,0.08)">
		<g transform="">
			<path class="st0" d="M-538.5-711.5c0-42.9,0-123.2,0-171.5c0-23.9,0-40,0-40v-17.5V-970v-30h-423v30v29.5v17.5c0,0,0,16.2,0,40
				c0,51.3,0,137.8,0,171.5c0,116.8,94.7,211.5,211.5,211.5C-633.2-500-538.5-594.7-538.5-711.5z"/>
		</g>
	</g>
	<g transform="translate(480,120) scale(0.08,0.08)">
		<g transform="">
			<path class="st0" d="M-538.5-711.5c0-42.9,0-123.2,0-171.5c0-23.9,0-40,0-40v-17.5V-970v-30h-423v30v29.5v17.5c0,0,0,16.2,0,40
				c0,51.3,0,137.8,0,171.5c0,116.8,94.7,211.5,211.5,211.5C-633.2-500-538.5-594.7-538.5-711.5z"/>
		</g>
	</g>
	<g transform="translate(520,120) scale(0.08,0.08)">
		<g transform="">
			<path class="st0" d="M-538.5-711.5c0-42.9,0-123.2,0-171.5c0-23.9,0-40,0-40v-17.5V-970v-30h-423v30v29.5v17.5c0,0,0,16.2,0,40
				c0,51.3,0,137.8,0,171.5c0,116.8,94.7,211.5,211.5,211.5C-633.2-500-538.5-594.7-538.5-711.5z"/>
		</g>
	</g>
	<g transform="translate(600,120) scale(0.08,0.08)">
		<g transform="">
			<path class="st0" d="M-750-961.5c116.8,0,211.5,94.7,211.5,211.5c0,116.8-94.7,211.5-211.5,211.5
				c-116.8,0-211.5-94.7-211.5-211.5C-961.5-866.8-866.8-961.5-750-961.5z"/>
		</g>
	</g>
	<g transform="translate(640,120) scale(0.08,0.08)">
		<g transform="">
			<path class="st0" d="M-961.5-788.5c0,42.9,0,123.2,0,171.5c0,23.9,0,40,0,40v17.5v29.5v30h423v-30v-29.5V-577c0,0,0-16.2,0-40
				c0-51.3,0-137.8,0-171.5c0-116.8-94.7-211.5-211.5-211.5C-866.8-1000-961.5-905.3-961.5-788.5z"/>
		</g>
	</g>
	<g transform="translate(320,160) scale(0.08,0.08)">
		<g transform="">
			<path class="st0" d="M-750-961.5c116.8,0,211.5,94.7,211.5,211.5c0,116.8-94.7,211.5-211.5,211.5
				c-116.8,0-211.5-94.7-211.5-211.5C-961.5-866.8-866.8-961.5-750-961.5z"/>
		</g>
	</g>
	<g transform="translate(400,160) scale(0.08,0.08)">
		<g transform="">
			<path class="st0" d="M-750-961.5c116.8,0,211.5,94.7,211.5,211.5c0,116.8-94.7,211.5-211.5,211.5
				c-116.8,0-211.5-94.7-211.5-211.5C-961.5-866.8-866.8-961.5-750-961.5z"/>
		</g>
	</g>
	<g transform="translate(560,160) scale(0.08,0.08)">
		<g transform="">
			<path class="st0" d="M-750-961.5c116.8,0,211.5,94.7,211.5,211.5c0,116.8-94.7,211.5-211.5,211.5
				c-116.8,0-211.5-94.7-211.5-211.5C-961.5-866.8-866.8-961.5-750-961.5z"/>
		</g>
	</g>
	<g transform="translate(640,160) scale(0.08,0.08)">
		<g transform="">
			<path class="st0" d="M-538.5-711.5c0-42.9,0-123.2,0-171.5c0-23.9,0-40,0-40v-17.5V-970v-30h-423v30v29.5v17.5c0,0,0,16.2,0,40
				c0,51.3,0,137.8,0,171.5c0,116.8,94.7,211.5,211.5,211.5C-633.2-500-538.5-594.7-538.5-711.5z"/>
		</g>
	</g>
	<g transform="translate(360,200) scale(0.08,0.08)">
		<g transform="">
			<path class="st0" d="M-750-961.5c116.8,0,211.5,94.7,211.5,211.5c0,116.8-94.7,211.5-211.5,211.5
				c-116.8,0-211.5-94.7-211.5-211.5C-961.5-866.8-866.8-961.5-750-961.5z"/>
		</g>
	</g>
	<g transform="translate(440,200) scale(0.08,0.08)">
		<g transform="">
			<path class="st0" d="M-750-961.5c116.8,0,211.5,94.7,211.5,211.5c0,116.8-94.7,211.5-211.5,211.5
				c-116.8,0-211.5-94.7-211.5-211.5C-961.5-866.8-866.8-961.5-750-961.5z"/>
		</g>
	</g>
	<g transform="translate(320,240) scale(0.08,0.08)">
		<g transform="">
			<path class="st0" d="M-750-961.5c116.8,0,211.5,94.7,211.5,211.5c0,116.8-94.7,211.5-211.5,211.5
				c-116.8,0-211.5-94.7-211.5-211.5C-961.5-866.8-866.8-961.5-750-961.5z"/>
		</g>
	</g>
	<g transform="translate(400,240) scale(0.08,0.08)">
		<g transform="">
			<path class="st0" d="M-961.5-788.5c0,42.9,0,123.2,0,171.5c0,23.9,0,40,0,40v17.5v29.5v30h423v-30v-29.5V-577c0,0,0-16.2,0-40
				c0-51.3,0-137.8,0-171.5c0-116.8-94.7-211.5-211.5-211.5C-866.8-1000-961.5-905.3-961.5-788.5z"/>
		</g>
	</g>
	<g transform="translate(480,240) scale(0.08,0.08)">
		<g transform="">
			<path class="st0" d="M-961.5-788.5c0,42.9,0,123.2,0,171.5c0,23.9,0,40,0,40v17.5v29.5v30h423v-30v-29.5V-577c0,0,0-16.2,0-40
				c0-51.3,0-137.8,0-171.5c0-116.8-94.7-211.5-211.5-211.5C-866.8-1000-961.5-905.3-961.5-788.5z"/>
		</g>
	</g>
	<g transform="translate(560,240) scale(0.08,0.08)">
		<g transform="">
			<path class="st0" d="M-750-961.5c116.8,0,211.5,94.7,211.5,211.5c0,116.8-94.7,211.5-211.5,211.5
				c-116.8,0-211.5-94.7-211.5-211.5C-961.5-866.8-866.8-961.5-750-961.5z"/>
		</g>
	</g>
	<g transform="translate(640,240) scale(0.08,0.08)">
		<g transform="">
			<path class="st0" d="M-750-961.5c116.8,0,211.5,94.7,211.5,211.5c0,116.8-94.7,211.5-211.5,211.5
				c-116.8,0-211.5-94.7-211.5-211.5C-961.5-866.8-866.8-961.5-750-961.5z"/>
		</g>
	</g>
	<g transform="translate(360,280) scale(0.08,0.08)">
		<g transform="">
			<path class="st0" d="M-961.5-788.5c0,42.9,0,123.2,0,171.5c0,23.9,0,40,0,40v17.5v29.5v30h423v-30v-29.5V-577c0,0,0-16.2,0-40
				c0-51.3,0-137.8,0-171.5c0-116.8-94.7-211.5-211.5-211.5C-866.8-1000-961.5-905.3-961.5-788.5z"/>
		</g>
	</g>
	<g transform="translate(400,280) scale(0.08,0.08)">
		<g transform="">
			<path class="st0" d="M-538.5-711.5c0-42.9,0-123.2,0-171.5c0-23.9,0-40,0-40v-17.5V-970v-30h-423v30v29.5v17.5c0,0,0,16.2,0,40
				c0,51.3,0,137.8,0,171.5c0,116.8,94.7,211.5,211.5,211.5C-633.2-500-538.5-594.7-538.5-711.5z"/>
		</g>
	</g>
	<g transform="translate(480,280) scale(0.08,0.08)">
		<g transform="">
			<polygon class="st0" points="-961.5,-750 -961.5,-500 -538.5,-500 -538.5,-750 -538.5,-1000 -961.5,-1000 			"/>
		</g>
	</g>
	<g transform="translate(520,280) scale(0.08,0.08)">
		<g transform="">
			<path class="st0" d="M-750-961.5c116.8,0,211.5,94.7,211.5,211.5c0,116.8-94.7,211.5-211.5,211.5
				c-116.8,0-211.5-94.7-211.5-211.5C-961.5-866.8-866.8-961.5-750-961.5z"/>
		</g>
	</g>
	<g transform="translate(0,320) scale(0.08,0.08)">
		<g transform="">
			<path class="st0" d="M-961.5-788.5c0,42.9,0,123.2,0,171.5c0,23.9,0,40,0,40v17.5v29.5v30h423v-30v-29.5V-577c0,0,0-16.2,0-40
				c0-51.3,0-137.8,0-171.5c0-116.8-94.7-211.5-211.5-211.5C-866.8-1000-961.5-905.3-961.5-788.5z"/>
		</g>
	</g>
	<g transform="translate(120,320) scale(0.08,0.08)">
		<g transform="">
			<path class="st0" d="M-961.5-788.5c0,42.9,0,123.2,0,171.5c0,23.9,0,40,0,40v17.5v29.5v30h423v-30v-29.5V-577c0,0,0-16.2,0-40
				c0-51.3,0-137.8,0-171.5c0-116.8-94.7-211.5-211.5-211.5C-866.8-1000-961.5-905.3-961.5-788.5z"/>
		</g>
	</g>
	<g transform="translate(160,320) scale(0.08,0.08)">
		<g transform="">
			<path class="st0" d="M-750-961.5c116.8,0,211.5,94.7,211.5,211.5c0,116.8-94.7,211.5-211.5,211.5
				c-116.8,0-211.5-94.7-211.5-211.5C-961.5-866.8-866.8-961.5-750-961.5z"/>
		</g>
	</g>
	<g transform="translate(200,320) scale(0.08,0.08)">
		<g transform="">
			<path class="st0" d="M-961.5-788.5c0,42.9,0,123.2,0,171.5c0,23.9,0,40,0,40v17.5v29.5v30h423v-30v-29.5V-577c0,0,0-16.2,0-40
				c0-51.3,0-137.8,0-171.5c0-116.8-94.7-211.5-211.5-211.5C-866.8-1000-961.5-905.3-961.5-788.5z"/>
		</g>
	</g>
	<g transform="translate(240,320) scale(0.08,0.08)">
		<g transform="">
			<path class="st0" d="M-750-961.5c116.8,0,211.5,94.7,211.5,211.5c0,116.8-94.7,211.5-211.5,211.5
				c-116.8,0-211.5-94.7-211.5-211.5C-961.5-866.8-866.8-961.5-750-961.5z"/>
		</g>
	</g>
	<g transform="translate(280,320) scale(0.08,0.08)">
		<g transform="">
			<path class="st0" d="M-961.5-788.5c0,42.9,0,123.2,0,171.5c0,23.9,0,40,0,40v17.5v29.5v30h423v-30v-29.5V-577c0,0,0-16.2,0-40
				c0-51.3,0-137.8,0-171.5c0-116.8-94.7-211.5-211.5-211.5C-866.8-1000-961.5-905.3-961.5-788.5z"/>
		</g>
	</g>
	<g transform="translate(320,320) scale(0.08,0.08)">
		<g transform="">
			<path class="st0" d="M-750-961.5c116.8,0,211.5,94.7,211.5,211.5c0,116.8-94.7,211.5-211.5,211.5
				c-116.8,0-211.5-94.7-211.5-211.5C-961.5-866.8-866.8-961.5-750-961.5z"/>
		</g>
	</g>
	<g transform="translate(360,320) scale(0.08,0.08)">
		<g transform="">
			<path class="st0" d="M-538.5-711.5c0-42.9,0-123.2,0-171.5c0-23.9,0-40,0-40v-17.5V-970v-30h-423v30v29.5v17.5c0,0,0,16.2,0,40
				c0,51.3,0,137.8,0,171.5c0,116.8,94.7,211.5,211.5,211.5C-633.2-500-538.5-594.7-538.5-711.5z"/>
		</g>
	</g>
	<g transform="translate(480,320) scale(0.08,0.08)">
		<g transform="">
			<polygon class="st0" points="-961.5,-750 -961.5,-500 -538.5,-500 -538.5,-750 -538.5,-1000 -961.5,-1000 			"/>
		</g>
	</g>
	<g transform="translate(600,320) scale(0.08,0.08)">
		<g transform="">
			<path class="st0" d="M-961.5-788.5c0,42.9,0,123.2,0,171.5c0,23.9,0,40,0,40v17.5v29.5v30h423v-30v-29.5V-577c0,0,0-16.2,0-40
				c0-51.3,0-137.8,0-171.5c0-116.8-94.7-211.5-211.5-211.5C-866.8-1000-961.5-905.3-961.5-788.5z"/>
		</g>
	</g>
	<g transform="translate(640,320) scale(0.08,0.08)">
		<g transform="">
			<path class="st0" d="M-750-961.5c116.8,0,211.5,94.7,211.5,211.5c0,116.8-94.7,211.5-211.5,211.5
				c-116.8,0-211.5-94.7-211.5-211.5C-961.5-866.8-866.8-961.5-750-961.5z"/>
		</g>
	</g>
	<g transform="translate(680,320) scale(0.08,0.08)">
		<g transform="">
			<path class="st0" d="M-961.5-788.5c0,42.9,0,123.2,0,171.5c0,23.9,0,40,0,40v17.5v29.5v30h423v-30v-29.5V-577c0,0,0-16.2,0-40
				c0-51.3,0-137.8,0-171.5c0-116.8-94.7-211.5-211.5-211.5C-866.8-1000-961.5-905.3-961.5-788.5z"/>
		</g>
	</g>
	<g transform="translate(800,320) scale(0.08,0.08)">
		<g transform="">
			<path class="st0" d="M-961.5-788.5c0,42.9,0,123.2,0,171.5c0,23.9,0,40,0,40v17.5v29.5v30h423v-30v-29.5V-577c0,0,0-16.2,0-40
				c0-51.3,0-137.8,0-171.5c0-116.8-94.7-211.5-211.5-211.5C-866.8-1000-961.5-905.3-961.5-788.5z"/>
		</g>
	</g>
	<g transform="translate(880,320) scale(0.08,0.08)">
		<g transform="">
			<path class="st0" d="M-961.5-788.5c0,42.9,0,123.2,0,171.5c0,23.9,0,40,0,40v17.5v29.5v30h423v-30v-29.5V-577c0,0,0-16.2,0-40
				c0-51.3,0-137.8,0-171.5c0-116.8-94.7-211.5-211.5-211.5C-866.8-1000-961.5-905.3-961.5-788.5z"/>
		</g>
	</g>
	<g transform="translate(920,320) scale(0.08,0.08)">
		<g transform="">
			<path class="st0" d="M-961.5-788.5c0,42.9,0,123.2,0,171.5c0,23.9,0,40,0,40v17.5v29.5v30h423v-30v-29.5V-577c0,0,0-16.2,0-40
				c0-51.3,0-137.8,0-171.5c0-116.8-94.7-211.5-211.5-211.5C-866.8-1000-961.5-905.3-961.5-788.5z"/>
		</g>
	</g>
	<g transform="translate(960,320) scale(0.08,0.08)">
		<g transform="">
			<path class="st0" d="M-750-961.5c116.8,0,211.5,94.7,211.5,211.5c0,116.8-94.7,211.5-211.5,211.5
				c-116.8,0-211.5-94.7-211.5-211.5C-961.5-866.8-866.8-961.5-750-961.5z"/>
		</g>
	</g>
	<g transform="translate(0,360) scale(0.08,0.08)">
		<g transform="">
			<polygon class="st0" points="-961.5,-750 -961.5,-500 -538.5,-500 -538.5,-750 -538.5,-1000 -961.5,-1000 			"/>
		</g>
	</g>
	<g transform="translate(40,360) scale(0.08,0.08)">
		<g transform="">
			<path class="st0" d="M-750-961.5c116.8,0,211.5,94.7,211.5,211.5c0,116.8-94.7,211.5-211.5,211.5
				c-116.8,0-211.5-94.7-211.5-211.5C-961.5-866.8-866.8-961.5-750-961.5z"/>
		</g>
	</g>
	<g transform="translate(120,360) scale(0.08,0.08)">
		<g transform="">
			<polygon class="st0" points="-961.5,-750 -961.5,-500 -538.5,-500 -538.5,-750 -538.5,-1000 -961.5,-1000 			"/>
		</g>
	</g>
	<g transform="translate(200,360) scale(0.08,0.08)">
		<g transform="">
			<polygon class="st0" points="-961.5,-750 -961.5,-500 -538.5,-500 -538.5,-750 -538.5,-1000 -961.5,-1000 			"/>
		</g>
	</g>
	<g transform="translate(280,360) scale(0.08,0.08)">
		<g transform="">
			<path class="st0" d="M-538.5-711.5c0-42.9,0-123.2,0-171.5c0-23.9,0-40,0-40v-17.5V-970v-30h-423v30v29.5v17.5c0,0,0,16.2,0,40
				c0,51.3,0,137.8,0,171.5c0,116.8,94.7,211.5,211.5,211.5C-633.2-500-538.5-594.7-538.5-711.5z"/>
		</g>
	</g>
	<g transform="translate(400,360) scale(0.08,0.08)">
		<g transform="">
			<path class="st0" d="M-750-961.5c116.8,0,211.5,94.7,211.5,211.5c0,116.8-94.7,211.5-211.5,211.5
				c-116.8,0-211.5-94.7-211.5-211.5C-961.5-866.8-866.8-961.5-750-961.5z"/>
		</g>
	</g>
	<g transform="translate(440,360) scale(0.08,0.08)">
		<g transform="">
			<path class="st0" d="M-750-961.5c116.8,0,211.5,94.7,211.5,211.5c0,116.8-94.7,211.5-211.5,211.5
				c-116.8,0-211.5-94.7-211.5-211.5C-961.5-866.8-866.8-961.5-750-961.5z"/>
		</g>
	</g>
	<g transform="translate(480,360) scale(0.08,0.08)">
		<g transform="">
			<polygon class="st0" points="-961.5,-750 -961.5,-500 -538.5,-500 -538.5,-750 -538.5,-1000 -961.5,-1000 			"/>
		</g>
	</g>
	<g transform="translate(520,360) scale(0.08,0.08)">
		<g transform="">
			<path class="st0" d="M-961.5-788.5c0,42.9,0,123.2,0,171.5c0,23.9,0,40,0,40v17.5v29.5v30h423v-30v-29.5V-577c0,0,0-16.2,0-40
				c0-51.3,0-137.8,0-171.5c0-116.8-94.7-211.5-211.5-211.5C-866.8-1000-961.5-905.3-961.5-788.5z"/>
		</g>
	</g>
	<g transform="translate(560,360) scale(0.08,0.08)">
		<g transform="">
			<path class="st0" d="M-750-961.5c116.8,0,211.5,94.7,211.5,211.5c0,116.8-94.7,211.5-211.5,211.5
				c-116.8,0-211.5-94.7-211.5-211.5C-961.5-866.8-866.8-961.5-750-961.5z"/>
		</g>
	</g>
	<g transform="translate(600,360) scale(0.08,0.08)">
		<g transform="">
			<polygon class="st0" points="-961.5,-750 -961.5,-500 -538.5,-500 -538.5,-750 -538.5,-1000 -961.5,-1000 			"/>
		</g>
	</g>
	<g transform="translate(680,360) scale(0.08,0.08)">
		<g transform="">
			<path class="st0" d="M-538.5-711.5c0-42.9,0-123.2,0-171.5c0-23.9,0-40,0-40v-17.5V-970v-30h-423v30v29.5v17.5c0,0,0,16.2,0,40
				c0,51.3,0,137.8,0,171.5c0,116.8,94.7,211.5,211.5,211.5C-633.2-500-538.5-594.7-538.5-711.5z"/>
		</g>
	</g>
	<g transform="translate(760,360) scale(0.08,0.08)">
		<g transform="">
			<path class="st0" d="M-961.5-788.5c0,42.9,0,123.2,0,171.5c0,23.9,0,40,0,40v17.5v29.5v30h423v-30v-29.5V-577c0,0,0-16.2,0-40
				c0-51.3,0-137.8,0-171.5c0-116.8-94.7-211.5-211.5-211.5C-866.8-1000-961.5-905.3-961.5-788.5z"/>
		</g>
	</g>
	<g transform="translate(800,360) scale(0.08,0.08)">
		<g transform="">
			<path class="st0" d="M-538.5-711.5c0-42.9,0-123.2,0-171.5c0-23.9,0-40,0-40v-17.5V-970v-30h-423v30v29.5v17.5c0,0,0,16.2,0,40
				c0,51.3,0,137.8,0,171.5c0,116.8,94.7,211.5,211.5,211.5C-633.2-500-538.5-594.7-538.5-711.5z"/>
		</g>
	</g>
	<g transform="translate(840,360) scale(0.08,0.08)">
		<g transform="">
			<path class="st0" d="M-961.5-788.5c0,42.9,0,123.2,0,171.5c0,23.9,0,40,0,40v17.5v29.5v30h423v-30v-29.5V-577c0,0,0-16.2,0-40
				c0-51.3,0-137.8,0-171.5c0-116.8-94.7-211.5-211.5-211.5C-866.8-1000-961.5-905.3-961.5-788.5z"/>
		</g>
	</g>
	<g transform="translate(880,360) scale(0.08,0.08)">
		<g transform="">
			<path class="st0" d="M-538.5-711.5c0-42.9,0-123.2,0-171.5c0-23.9,0-40,0-40v-17.5V-970v-30h-423v30v29.5v17.5c0,0,0,16.2,0,40
				c0,51.3,0,137.8,0,171.5c0,116.8,94.7,211.5,211.5,211.5C-633.2-500-538.5-594.7-538.5-711.5z"/>
		</g>
	</g>
	<g transform="translate(920,360) scale(0.08,0.08)">
		<g transform="">
			<path class="st0" d="M-538.5-711.5c0-42.9,0-123.2,0-171.5c0-23.9,0-40,0-40v-17.5V-970v-30h-423v30v29.5v17.5c0,0,0,16.2,0,40
				c0,51.3,0,137.8,0,171.5c0,116.8,94.7,211.5,211.5,211.5C-633.2-500-538.5-594.7-538.5-711.5z"/>
		</g>
	</g>
	<g transform="translate(0,400) scale(0.08,0.08)">
		<g transform="">
			<path class="st0" d="M-538.5-711.5c0-42.9,0-123.2,0-171.5c0-23.9,0-40,0-40v-17.5V-970v-30h-423v30v29.5v17.5c0,0,0,16.2,0,40
				c0,51.3,0,137.8,0,171.5c0,116.8,94.7,211.5,211.5,211.5C-633.2-500-538.5-594.7-538.5-711.5z"/>
		</g>
	</g>
	<g transform="translate(120,400) scale(0.08,0.08)">
		<g transform="">
			<polygon class="st0" points="-961.5,-750 -961.5,-500 -538.5,-500 -538.5,-750 -538.5,-1000 -961.5,-1000 			"/>
		</g>
	</g>
	<g transform="translate(200,400) scale(0.08,0.08)">
		<g transform="">
			<path class="st0" d="M-538.5-711.5c0-42.9,0-123.2,0-171.5c0-23.9,0-40,0-40v-17.5V-970v-30h-423v30v29.5v17.5c0,0,0,16.2,0,40
				c0,51.3,0,137.8,0,171.5c0,116.8,94.7,211.5,211.5,211.5C-633.2-500-538.5-594.7-538.5-711.5z"/>
		</g>
	</g>
	<g transform="translate(240,400) scale(0.08,0.08)">
		<g transform="">
			<path class="st0" d="M-750-961.5c116.8,0,211.5,94.7,211.5,211.5c0,116.8-94.7,211.5-211.5,211.5
				c-116.8,0-211.5-94.7-211.5-211.5C-961.5-866.8-866.8-961.5-750-961.5z"/>
		</g>
	</g>
	<g transform="translate(320,400) scale(0.08,0.08)">
		<g transform="">
			<path class="st0" d="M-961.5-788.5c0,42.9,0,123.2,0,171.5c0,23.9,0,40,0,40v17.5v29.5v30h423v-30v-29.5V-577c0,0,0-16.2,0-40
				c0-51.3,0-137.8,0-171.5c0-116.8-94.7-211.5-211.5-211.5C-866.8-1000-961.5-905.3-961.5-788.5z"/>
		</g>
	</g>
	<g transform="translate(360,400) scale(0.08,0.08)">
		<g transform="">
			<path class="st0" d="M-961.5-788.5c0,42.9,0,123.2,0,171.5c0,23.9,0,40,0,40v17.5v29.5v30h423v-30v-29.5V-577c0,0,0-16.2,0-40
				c0-51.3,0-137.8,0-171.5c0-116.8-94.7-211.5-211.5-211.5C-866.8-1000-961.5-905.3-961.5-788.5z"/>
		</g>
	</g>
	<g transform="translate(480,400) scale(0.08,0.08)">
		<g transform="">
			<path class="st0" d="M-538.5-711.5c0-42.9,0-123.2,0-171.5c0-23.9,0-40,0-40v-17.5V-970v-30h-423v30v29.5v17.5c0,0,0,16.2,0,40
				c0,51.3,0,137.8,0,171.5c0,116.8,94.7,211.5,211.5,211.5C-633.2-500-538.5-594.7-538.5-711.5z"/>
		</g>
	</g>
	<g transform="translate(520,400) scale(0.08,0.08)">
		<g transform="">
			<path class="st0" d="M-538.5-711.5c0-42.9,0-123.2,0-171.5c0-23.9,0-40,0-40v-17.5V-970v-30h-423v30v29.5v17.5c0,0,0,16.2,0,40
				c0,51.3,0,137.8,0,171.5c0,116.8,94.7,211.5,211.5,211.5C-633.2-500-538.5-594.7-538.5-711.5z"/>
		</g>
	</g>
	<g transform="translate(600,400) scale(0.08,0.08)">
		<g transform="">
			<polygon class="st0" points="-961.5,-750 -961.5,-500 -538.5,-500 -538.5,-750 -538.5,-1000 -961.5,-1000 			"/>
		</g>
	</g>
	<g transform="translate(720,400) scale(0.08,0.08)">
		<g transform="">
			<path class="st0" d="M-750-961.5c116.8,0,211.5,94.7,211.5,211.5c0,116.8-94.7,211.5-211.5,211.5
				c-116.8,0-211.5-94.7-211.5-211.5C-961.5-866.8-866.8-961.5-750-961.5z"/>
		</g>
	</g>
	<g transform="translate(760,400) scale(0.08,0.08)">
		<g transform="">
			<polygon class="st0" points="-961.5,-750 -961.5,-500 -538.5,-500 -538.5,-750 -538.5,-1000 -961.5,-1000 			"/>
		</g>
	</g>
	<g transform="translate(840,400) scale(0.08,0.08)">
		<g transform="">
			<polygon class="st0" points="-961.5,-750 -961.5,-500 -538.5,-500 -538.5,-750 -538.5,-1000 -961.5,-1000 			"/>
		</g>
	</g>
	<g transform="translate(960,400) scale(0.08,0.08)">
		<g transform="">
			<path class="st0" d="M-961.5-788.5c0,42.9,0,123.2,0,171.5c0,23.9,0,40,0,40v17.5v29.5v30h423v-30v-29.5V-577c0,0,0-16.2,0-40
				c0-51.3,0-137.8,0-171.5c0-116.8-94.7-211.5-211.5-211.5C-866.8-1000-961.5-905.3-961.5-788.5z"/>
		</g>
	</g>
	<g transform="translate(120,440) scale(0.08,0.08)">
		<g transform="">
			<path class="st0" d="M-538.5-711.5c0-42.9,0-123.2,0-171.5c0-23.9,0-40,0-40v-17.5V-970v-30h-423v30v29.5v17.5c0,0,0,16.2,0,40
				c0,51.3,0,137.8,0,171.5c0,116.8,94.7,211.5,211.5,211.5C-633.2-500-538.5-594.7-538.5-711.5z"/>
		</g>
	</g>
	<g transform="translate(280,440) scale(0.08,0.08)">
		<g transform="">
			<path class="st0" d="M-961.5-788.5c0,42.9,0,123.2,0,171.5c0,23.9,0,40,0,40v17.5v29.5v30h423v-30v-29.5V-577c0,0,0-16.2,0-40
				c0-51.3,0-137.8,0-171.5c0-116.8-94.7-211.5-211.5-211.5C-866.8-1000-961.5-905.3-961.5-788.5z"/>
		</g>
	</g>
	<g transform="translate(320,440) scale(0.08,0.08)">
		<g transform="">
			<polygon class="st0" points="-961.5,-750 -961.5,-500 -538.5,-500 -538.5,-750 -538.5,-1000 -961.5,-1000 			"/>
		</g>
	</g>
	<g transform="translate(360,440) scale(0.08,0.08)">
		<g transform="">
			<polygon class="st0" points="-961.5,-750 -961.5,-500 -538.5,-500 -538.5,-750 -538.5,-1000 -961.5,-1000 			"/>
		</g>
	</g>
	<g transform="translate(600,440) scale(0.08,0.08)">
		<g transform="">
			<polygon class="st0" points="-961.5,-750 -961.5,-500 -538.5,-500 -538.5,-750 -538.5,-1000 -961.5,-1000 			"/>
		</g>
	</g>
	<g transform="translate(640,440) scale(0.08,0.08)">
		<g transform="">
			<path class="st0" d="M-750-961.5c116.8,0,211.5,94.7,211.5,211.5c0,116.8-94.7,211.5-211.5,211.5
				c-116.8,0-211.5-94.7-211.5-211.5C-961.5-866.8-866.8-961.5-750-961.5z"/>
		</g>
	</g>
	<g transform="translate(760,440) scale(0.08,0.08)">
		<g transform="">
			<path class="st0" d="M-538.5-711.5c0-42.9,0-123.2,0-171.5c0-23.9,0-40,0-40v-17.5V-970v-30h-423v30v29.5v17.5c0,0,0,16.2,0,40
				c0,51.3,0,137.8,0,171.5c0,116.8,94.7,211.5,211.5,211.5C-633.2-500-538.5-594.7-538.5-711.5z"/>
		</g>
	</g>
	<g transform="translate(840,440) scale(0.08,0.08)">
		<g transform="">
			<path class="st0" d="M-538.5-711.5c0-42.9,0-123.2,0-171.5c0-23.9,0-40,0-40v-17.5V-970v-30h-423v30v29.5v17.5c0,0,0,16.2,0,40
				c0,51.3,0,137.8,0,171.5c0,116.8,94.7,211.5,211.5,211.5C-633.2-500-538.5-594.7-538.5-711.5z"/>
		</g>
	</g>
	<g transform="translate(880,440) scale(0.08,0.08)">
		<g transform="">
			<path class="st0" d="M-750-961.5c116.8,0,211.5,94.7,211.5,211.5c0,116.8-94.7,211.5-211.5,211.5
				c-116.8,0-211.5-94.7-211.5-211.5C-961.5-866.8-866.8-961.5-750-961.5z"/>
		</g>
	</g>
	<g transform="translate(920,440) scale(0.08,0.08)">
		<g transform="">
			<path class="st0" d="M-750-961.5c116.8,0,211.5,94.7,211.5,211.5c0,116.8-94.7,211.5-211.5,211.5
				c-116.8,0-211.5-94.7-211.5-211.5C-961.5-866.8-866.8-961.5-750-961.5z"/>
		</g>
	</g>
	<g transform="translate(960,440) scale(0.08,0.08)">
		<g transform="">
			<polygon class="st0" points="-961.5,-750 -961.5,-500 -538.5,-500 -538.5,-750 -538.5,-1000 -961.5,-1000 			"/>
		</g>
	</g>
	<g transform="translate(0,480) scale(0.08,0.08)">
		<g transform="">
			<path class="st0" d="M-961.5-788.5c0,42.9,0,123.2,0,171.5c0,23.9,0,40,0,40v17.5v29.5v30h423v-30v-29.5V-577c0,0,0-16.2,0-40
				c0-51.3,0-137.8,0-171.5c0-116.8-94.7-211.5-211.5-211.5C-866.8-1000-961.5-905.3-961.5-788.5z"/>
		</g>
	</g>
	<g transform="translate(80,480) scale(0.08,0.08)">
		<g transform="">
			<path class="st0" d="M-961.5-788.5c0,42.9,0,123.2,0,171.5c0,23.9,0,40,0,40v17.5v29.5v30h423v-30v-29.5V-577c0,0,0-16.2,0-40
				c0-51.3,0-137.8,0-171.5c0-116.8-94.7-211.5-211.5-211.5C-866.8-1000-961.5-905.3-961.5-788.5z"/>
		</g>
	</g>
	<g transform="translate(240,480) scale(0.08,0.08)">
		<g transform="">
			<path class="st0" d="M-750-961.5c116.8,0,211.5,94.7,211.5,211.5c0,116.8-94.7,211.5-211.5,211.5
				c-116.8,0-211.5-94.7-211.5-211.5C-961.5-866.8-866.8-961.5-750-961.5z"/>
		</g>
	</g>
	<g transform="translate(280,480) scale(0.08,0.08)">
		<g transform="">
			<polygon class="st0" points="-961.5,-750 -961.5,-500 -538.5,-500 -538.5,-750 -538.5,-1000 -961.5,-1000 			"/>
		</g>
	</g>
	<g transform="translate(320,480) scale(0.08,0.08)">
		<g transform="">
			<path class="st0" d="M-538.5-711.5c0-42.9,0-123.2,0-171.5c0-23.9,0-40,0-40v-17.5V-970v-30h-423v30v29.5v17.5c0,0,0,16.2,0,40
				c0,51.3,0,137.8,0,171.5c0,116.8,94.7,211.5,211.5,211.5C-633.2-500-538.5-594.7-538.5-711.5z"/>
		</g>
	</g>
	<g transform="translate(360,480) scale(0.08,0.08)">
		<g transform="">
			<polygon class="st0" points="-961.5,-750 -961.5,-500 -538.5,-500 -538.5,-750 -538.5,-1000 -961.5,-1000 			"/>
		</g>
	</g>
	<g transform="translate(400,480) scale(0.08,0.08)">
		<g transform="">
			<path class="st0" d="M-961.5-788.5c0,42.9,0,123.2,0,171.5c0,23.9,0,40,0,40v17.5v29.5v30h423v-30v-29.5V-577c0,0,0-16.2,0-40
				c0-51.3,0-137.8,0-171.5c0-116.8-94.7-211.5-211.5-211.5C-866.8-1000-961.5-905.3-961.5-788.5z"/>
		</g>
	</g>
	<g transform="translate(440,480) scale(0.08,0.08)">
		<g transform="">
			<path class="st0" d="M-750-961.5c116.8,0,211.5,94.7,211.5,211.5c0,116.8-94.7,211.5-211.5,211.5
				c-116.8,0-211.5-94.7-211.5-211.5C-961.5-866.8-866.8-961.5-750-961.5z"/>
		</g>
	</g>
	<g transform="translate(600,480) scale(0.08,0.08)">
		<g transform="">
			<polygon class="st0" points="-961.5,-750 -961.5,-500 -538.5,-500 -538.5,-750 -538.5,-1000 -961.5,-1000 			"/>
		</g>
	</g>
	<g transform="translate(720,480) scale(0.08,0.08)">
		<g transform="">
			<path class="st0" d="M-750-961.5c116.8,0,211.5,94.7,211.5,211.5c0,116.8-94.7,211.5-211.5,211.5
				c-116.8,0-211.5-94.7-211.5-211.5C-961.5-866.8-866.8-961.5-750-961.5z"/>
		</g>
	</g>
	<g transform="translate(960,480) scale(0.08,0.08)">
		<g transform="">
			<path class="st0" d="M-538.5-711.5c0-42.9,0-123.2,0-171.5c0-23.9,0-40,0-40v-17.5V-970v-30h-423v30v29.5v17.5c0,0,0,16.2,0,40
				c0,51.3,0,137.8,0,171.5c0,116.8,94.7,211.5,211.5,211.5C-633.2-500-538.5-594.7-538.5-711.5z"/>
		</g>
	</g>
	<g transform="translate(0,520) scale(0.08,0.08)">
		<g transform="">
			<polygon class="st0" points="-961.5,-750 -961.5,-500 -538.5,-500 -538.5,-750 -538.5,-1000 -961.5,-1000 			"/>
		</g>
	</g>
	<g transform="translate(80,520) scale(0.08,0.08)">
		<g transform="">
			<polygon class="st0" points="-961.5,-750 -961.5,-500 -538.5,-500 -538.5,-750 -538.5,-1000 -961.5,-1000 			"/>
		</g>
	</g>
	<g transform="translate(120,520) scale(0.08,0.08)">
		<g transform="">
			<path class="st0" d="M-750-961.5c116.8,0,211.5,94.7,211.5,211.5c0,116.8-94.7,211.5-211.5,211.5
				c-116.8,0-211.5-94.7-211.5-211.5C-961.5-866.8-866.8-961.5-750-961.5z"/>
		</g>
	</g>
	<g transform="translate(200,520) scale(0.08,0.08)">
		<g transform="">
			<path class="st0" d="M-750-961.5c116.8,0,211.5,94.7,211.5,211.5c0,116.8-94.7,211.5-211.5,211.5
				c-116.8,0-211.5-94.7-211.5-211.5C-961.5-866.8-866.8-961.5-750-961.5z"/>
		</g>
	</g>
	<g transform="translate(280,520) scale(0.08,0.08)">
		<g transform="">
			<path class="st0" d="M-538.5-711.5c0-42.9,0-123.2,0-171.5c0-23.9,0-40,0-40v-17.5V-970v-30h-423v30v29.5v17.5c0,0,0,16.2,0,40
				c0,51.3,0,137.8,0,171.5c0,116.8,94.7,211.5,211.5,211.5C-633.2-500-538.5-594.7-538.5-711.5z"/>
		</g>
	</g>
	<g transform="translate(360,520) scale(0.08,0.08)">
		<g transform="">
			<polygon class="st0" points="-961.5,-750 -961.5,-500 -538.5,-500 -538.5,-750 -538.5,-1000 -961.5,-1000 			"/>
		</g>
	</g>
	<g transform="translate(400,520) scale(0.08,0.08)">
		<g transform="">
			<path class="st0" d="M-538.5-711.5c0-42.9,0-123.2,0-171.5c0-23.9,0-40,0-40v-17.5V-970v-30h-423v30v29.5v17.5c0,0,0,16.2,0,40
				c0,51.3,0,137.8,0,171.5c0,116.8,94.7,211.5,211.5,211.5C-633.2-500-538.5-594.7-538.5-711.5z"/>
		</g>
	</g>
	<g transform="translate(480,520) scale(0.08,0.08)">
		<g transform="">
			<path class="st0" d="M-750-961.5c116.8,0,211.5,94.7,211.5,211.5c0,116.8-94.7,211.5-211.5,211.5
				c-116.8,0-211.5-94.7-211.5-211.5C-961.5-866.8-866.8-961.5-750-961.5z"/>
		</g>
	</g>
	<g transform="translate(520,520) scale(0.08,0.08)">
		<g transform="">
			<path class="st0" d="M-961.5-788.5c0,42.9,0,123.2,0,171.5c0,23.9,0,40,0,40v17.5v29.5v30h423v-30v-29.5V-577c0,0,0-16.2,0-40
				c0-51.3,0-137.8,0-171.5c0-116.8-94.7-211.5-211.5-211.5C-866.8-1000-961.5-905.3-961.5-788.5z"/>
		</g>
	</g>
	<g transform="translate(600,520) scale(0.08,0.08)">
		<g transform="">
			<polygon class="st0" points="-961.5,-750 -961.5,-500 -538.5,-500 -538.5,-750 -538.5,-1000 -961.5,-1000 			"/>
		</g>
	</g>
	<g transform="translate(640,520) scale(0.08,0.08)">
		<g transform="">
			<path class="st0" d="M-961.5-788.5c0,42.9,0,123.2,0,171.5c0,23.9,0,40,0,40v17.5v29.5v30h423v-30v-29.5V-577c0,0,0-16.2,0-40
				c0-51.3,0-137.8,0-171.5c0-116.8-94.7-211.5-211.5-211.5C-866.8-1000-961.5-905.3-961.5-788.5z"/>
		</g>
	</g>
	<g transform="translate(680,520) scale(0.08,0.08)">
		<g transform="">
			<path class="st0" d="M-961.5-788.5c0,42.9,0,123.2,0,171.5c0,23.9,0,40,0,40v17.5v29.5v30h423v-30v-29.5V-577c0,0,0-16.2,0-40
				c0-51.3,0-137.8,0-171.5c0-116.8-94.7-211.5-211.5-211.5C-866.8-1000-961.5-905.3-961.5-788.5z"/>
		</g>
	</g>
	<g transform="translate(800,520) scale(0.08,0.08)">
		<g transform="">
			<path class="st0" d="M-961.5-788.5c0,42.9,0,123.2,0,171.5c0,23.9,0,40,0,40v17.5v29.5v30h423v-30v-29.5V-577c0,0,0-16.2,0-40
				c0-51.3,0-137.8,0-171.5c0-116.8-94.7-211.5-211.5-211.5C-866.8-1000-961.5-905.3-961.5-788.5z"/>
		</g>
	</g>
	<g transform="translate(920,520) scale(0.08,0.08)">
		<g transform="">
			<path class="st0" d="M-961.5-788.5c0,42.9,0,123.2,0,171.5c0,23.9,0,40,0,40v17.5v29.5v30h423v-30v-29.5V-577c0,0,0-16.2,0-40
				c0-51.3,0-137.8,0-171.5c0-116.8-94.7-211.5-211.5-211.5C-866.8-1000-961.5-905.3-961.5-788.5z"/>
		</g>
	</g>
	<g transform="translate(0,560) scale(0.08,0.08)">
		<g transform="">
			<polygon class="st0" points="-961.5,-750 -961.5,-500 -538.5,-500 -538.5,-750 -538.5,-1000 -961.5,-1000 			"/>
		</g>
	</g>
	<g transform="translate(40,560) scale(0.08,0.08)">
		<g transform="">
			<path class="st0" d="M-750-961.5c116.8,0,211.5,94.7,211.5,211.5c0,116.8-94.7,211.5-211.5,211.5
				c-116.8,0-211.5-94.7-211.5-211.5C-961.5-866.8-866.8-961.5-750-961.5z"/>
		</g>
	</g>
	<g transform="translate(80,560) scale(0.08,0.08)">
		<g transform="">
			<polygon class="st0" points="-961.5,-750 -961.5,-500 -538.5,-500 -538.5,-750 -538.5,-1000 -961.5,-1000 			"/>
		</g>
	</g>
	<g transform="translate(240,560) scale(0.08,0.08)">
		<g transform="">
			<path class="st0" d="M-750-961.5c116.8,0,211.5,94.7,211.5,211.5c0,116.8-94.7,211.5-211.5,211.5
				c-116.8,0-211.5-94.7-211.5-211.5C-961.5-866.8-866.8-961.5-750-961.5z"/>
		</g>
	</g>
	<g transform="translate(320,560) scale(0.08,0.08)">
		<g transform="">
			<path class="st0" d="M-750-961.5c116.8,0,211.5,94.7,211.5,211.5c0,116.8-94.7,211.5-211.5,211.5
				c-116.8,0-211.5-94.7-211.5-211.5C-961.5-866.8-866.8-961.5-750-961.5z"/>
		</g>
	</g>
	<g transform="translate(360,560) scale(0.08,0.08)">
		<g transform="">
			<polygon class="st0" points="-961.5,-750 -961.5,-500 -538.5,-500 -538.5,-750 -538.5,-1000 -961.5,-1000 			"/>
		</g>
	</g>
	<g transform="translate(520,560) scale(0.08,0.08)">
		<g transform="">
			<path class="st0" d="M-538.5-711.5c0-42.9,0-123.2,0-171.5c0-23.9,0-40,0-40v-17.5V-970v-30h-423v30v29.5v17.5c0,0,0,16.2,0,40
				c0,51.3,0,137.8,0,171.5c0,116.8,94.7,211.5,211.5,211.5C-633.2-500-538.5-594.7-538.5-711.5z"/>
		</g>
	</g>
	<g transform="translate(560,560) scale(0.08,0.08)">
		<g transform="">
			<path class="st0" d="M-750-961.5c116.8,0,211.5,94.7,211.5,211.5c0,116.8-94.7,211.5-211.5,211.5
				c-116.8,0-211.5-94.7-211.5-211.5C-961.5-866.8-866.8-961.5-750-961.5z"/>
		</g>
	</g>
	<g transform="translate(600,560) scale(0.08,0.08)">
		<g transform="">
			<polygon class="st0" points="-961.5,-750 -961.5,-500 -538.5,-500 -538.5,-750 -538.5,-1000 -961.5,-1000 			"/>
		</g>
	</g>
	<g transform="translate(640,560) scale(0.08,0.08)">
		<g transform="">
			<path class="st0" d="M-538.5-711.5c0-42.9,0-123.2,0-171.5c0-23.9,0-40,0-40v-17.5V-970v-30h-423v30v29.5v17.5c0,0,0,16.2,0,40
				c0,51.3,0,137.8,0,171.5c0,116.8,94.7,211.5,211.5,211.5C-633.2-500-538.5-594.7-538.5-711.5z"/>
		</g>
	</g>
	<g transform="translate(680,560) scale(0.08,0.08)">
		<g transform="">
			<polygon class="st0" points="-961.5,-750 -961.5,-500 -538.5,-500 -538.5,-750 -538.5,-1000 -961.5,-1000 			"/>
		</g>
	</g>
	<g transform="translate(720,560) scale(0.08,0.08)">
		<g transform="">
			<path class="st0" d="M-750-961.5c116.8,0,211.5,94.7,211.5,211.5c0,116.8-94.7,211.5-211.5,211.5
				c-116.8,0-211.5-94.7-211.5-211.5C-961.5-866.8-866.8-961.5-750-961.5z"/>
		</g>
	</g>
	<g transform="translate(800,560) scale(0.08,0.08)">
		<g transform="">
			<path class="st0" d="M-538.5-711.5c0-42.9,0-123.2,0-171.5c0-23.9,0-40,0-40v-17.5V-970v-30h-423v30v29.5v17.5c0,0,0,16.2,0,40
				c0,51.3,0,137.8,0,171.5c0,116.8,94.7,211.5,211.5,211.5C-633.2-500-538.5-594.7-538.5-711.5z"/>
		</g>
	</g>
	<g transform="translate(840,560) scale(0.08,0.08)">
		<g transform="">
			<path class="st0" d="M-961.5-788.5c0,42.9,0,123.2,0,171.5c0,23.9,0,40,0,40v17.5v29.5v30h423v-30v-29.5V-577c0,0,0-16.2,0-40
				c0-51.3,0-137.8,0-171.5c0-116.8-94.7-211.5-211.5-211.5C-866.8-1000-961.5-905.3-961.5-788.5z"/>
		</g>
	</g>
	<g transform="translate(880,560) scale(0.08,0.08)">
		<g transform="">
			<path class="st0" d="M-961.5-788.5c0,42.9,0,123.2,0,171.5c0,23.9,0,40,0,40v17.5v29.5v30h423v-30v-29.5V-577c0,0,0-16.2,0-40
				c0-51.3,0-137.8,0-171.5c0-116.8-94.7-211.5-211.5-211.5C-866.8-1000-961.5-905.3-961.5-788.5z"/>
		</g>
	</g>
	<g transform="translate(920,560) scale(0.08,0.08)">
		<g transform="">
			<path class="st0" d="M-538.5-711.5c0-42.9,0-123.2,0-171.5c0-23.9,0-40,0-40v-17.5V-970v-30h-423v30v29.5v17.5c0,0,0,16.2,0,40
				c0,51.3,0,137.8,0,171.5c0,116.8,94.7,211.5,211.5,211.5C-633.2-500-538.5-594.7-538.5-711.5z"/>
		</g>
	</g>
	<g transform="translate(960,560) scale(0.08,0.08)">
		<g transform="">
			<path class="st0" d="M-961.5-788.5c0,42.9,0,123.2,0,171.5c0,23.9,0,40,0,40v17.5v29.5v30h423v-30v-29.5V-577c0,0,0-16.2,0-40
				c0-51.3,0-137.8,0-171.5c0-116.8-94.7-211.5-211.5-211.5C-866.8-1000-961.5-905.3-961.5-788.5z"/>
		</g>
	</g>
	<g transform="translate(0,600) scale(0.08,0.08)">
		<g transform="">
			<polygon class="st0" points="-961.5,-750 -961.5,-500 -538.5,-500 -538.5,-750 -538.5,-1000 -961.5,-1000 			"/>
		</g>
	</g>
	<g transform="translate(80,600) scale(0.08,0.08)">
		<g transform="">
			<polygon class="st0" points="-961.5,-750 -961.5,-500 -538.5,-500 -538.5,-750 -538.5,-1000 -961.5,-1000 			"/>
		</g>
	</g>
	<g transform="translate(120,600) scale(0.08,0.08)">
		<g transform="">
			<path class="st0" d="M-750-961.5c116.8,0,211.5,94.7,211.5,211.5c0,116.8-94.7,211.5-211.5,211.5
				c-116.8,0-211.5-94.7-211.5-211.5C-961.5-866.8-866.8-961.5-750-961.5z"/>
		</g>
	</g>
	<g transform="translate(200,600) scale(0.08,0.08)">
		<g transform="">
			<path class="st0" d="M-961.5-788.5c0,42.9,0,123.2,0,171.5c0,23.9,0,40,0,40v17.5v29.5v30h423v-30v-29.5V-577c0,0,0-16.2,0-40
				c0-51.3,0-137.8,0-171.5c0-116.8-94.7-211.5-211.5-211.5C-866.8-1000-961.5-905.3-961.5-788.5z"/>
		</g>
	</g>
	<g transform="translate(360,600) scale(0.08,0.08)">
		<g transform="">
			<path class="st0" d="M-538.5-711.5c0-42.9,0-123.2,0-171.5c0-23.9,0-40,0-40v-17.5V-970v-30h-423v30v29.5v17.5c0,0,0,16.2,0,40
				c0,51.3,0,137.8,0,171.5c0,116.8,94.7,211.5,211.5,211.5C-633.2-500-538.5-594.7-538.5-711.5z"/>
		</g>
	</g>
	<g transform="translate(480,600) scale(0.08,0.08)">
		<g transform="">
			<path class="st0" d="M-961.5-788.5c0,42.9,0,123.2,0,171.5c0,23.9,0,40,0,40v17.5v29.5v30h423v-30v-29.5V-577c0,0,0-16.2,0-40
				c0-51.3,0-137.8,0-171.5c0-116.8-94.7-211.5-211.5-211.5C-866.8-1000-961.5-905.3-961.5-788.5z"/>
		</g>
	</g>
	<g transform="translate(600,600) scale(0.08,0.08)">
		<g transform="">
			<polygon class="st0" points="-961.5,-750 -961.5,-500 -538.5,-500 -538.5,-750 -538.5,-1000 -961.5,-1000 			"/>
		</g>
	</g>
	<g transform="translate(680,600) scale(0.08,0.08)">
		<g transform="">
			<polygon class="st0" points="-961.5,-750 -961.5,-500 -538.5,-500 -538.5,-750 -538.5,-1000 -961.5,-1000 			"/>
		</g>
	</g>
	<g transform="translate(760,600) scale(0.08,0.08)">
		<g transform="">
			<path class="st0" d="M-961.5-788.5c0,42.9,0,123.2,0,171.5c0,23.9,0,40,0,40v17.5v29.5v30h423v-30v-29.5V-577c0,0,0-16.2,0-40
				c0-51.3,0-137.8,0-171.5c0-116.8-94.7-211.5-211.5-211.5C-866.8-1000-961.5-905.3-961.5-788.5z"/>
		</g>
	</g>
	<g transform="translate(840,600) scale(0.08,0.08)">
		<g transform="">
			<path class="st0" d="M-538.5-711.5c0-42.9,0-123.2,0-171.5c0-23.9,0-40,0-40v-17.5V-970v-30h-423v30v29.5v17.5c0,0,0,16.2,0,40
				c0,51.3,0,137.8,0,171.5c0,116.8,94.7,211.5,211.5,211.5C-633.2-500-538.5-594.7-538.5-711.5z"/>
		</g>
	</g>
	<g transform="translate(880,600) scale(0.08,0.08)">
		<g transform="">
			<polygon class="st0" points="-961.5,-750 -961.5,-500 -538.5,-500 -538.5,-750 -538.5,-1000 -961.5,-1000 			"/>
		</g>
	</g>
	<g transform="translate(960,600) scale(0.08,0.08)">
		<g transform="">
			<path class="st0" d="M-538.5-711.5c0-42.9,0-123.2,0-171.5c0-23.9,0-40,0-40v-17.5V-970v-30h-423v30v29.5v17.5c0,0,0,16.2,0,40
				c0,51.3,0,137.8,0,171.5c0,116.8,94.7,211.5,211.5,211.5C-633.2-500-538.5-594.7-538.5-711.5z"/>
		</g>
	</g>
	<g transform="translate(0,640) scale(0.08,0.08)">
		<g transform="">
			<path class="st0" d="M-538.5-711.5c0-42.9,0-123.2,0-171.5c0-23.9,0-40,0-40v-17.5V-970v-30h-423v30v29.5v17.5c0,0,0,16.2,0,40
				c0,51.3,0,137.8,0,171.5c0,116.8,94.7,211.5,211.5,211.5C-633.2-500-538.5-594.7-538.5-711.5z"/>
		</g>
	</g>
	<g transform="translate(80,640) scale(0.08,0.08)">
		<g transform="">
			<path class="st0" d="M-538.5-711.5c0-42.9,0-123.2,0-171.5c0-23.9,0-40,0-40v-17.5V-970v-30h-423v30v29.5v17.5c0,0,0,16.2,0,40
				c0,51.3,0,137.8,0,171.5c0,116.8,94.7,211.5,211.5,211.5C-633.2-500-538.5-594.7-538.5-711.5z"/>
		</g>
	</g>
	<g transform="translate(160,640) scale(0.08,0.08)">
		<g transform="">
			<path class="st0" d="M-750-961.5c116.8,0,211.5,94.7,211.5,211.5c0,116.8-94.7,211.5-211.5,211.5
				c-116.8,0-211.5-94.7-211.5-211.5C-961.5-866.8-866.8-961.5-750-961.5z"/>
		</g>
	</g>
	<g transform="translate(200,640) scale(0.08,0.08)">
		<g transform="">
			<path class="st0" d="M-538.5-711.5c0-42.9,0-123.2,0-171.5c0-23.9,0-40,0-40v-17.5V-970v-30h-423v30v29.5v17.5c0,0,0,16.2,0,40
				c0,51.3,0,137.8,0,171.5c0,116.8,94.7,211.5,211.5,211.5C-633.2-500-538.5-594.7-538.5-711.5z"/>
		</g>
	</g>
	<g transform="translate(240,640) scale(0.08,0.08)">
		<g transform="">
			<path class="st0" d="M-750-961.5c116.8,0,211.5,94.7,211.5,211.5c0,116.8-94.7,211.5-211.5,211.5
				c-116.8,0-211.5-94.7-211.5-211.5C-961.5-866.8-866.8-961.5-750-961.5z"/>
		</g>
	</g>
	<g transform="translate(280,640) scale(0.08,0.08)">
		<g transform="">
			<path class="st0" d="M-750-961.5c116.8,0,211.5,94.7,211.5,211.5c0,116.8-94.7,211.5-211.5,211.5
				c-116.8,0-211.5-94.7-211.5-211.5C-961.5-866.8-866.8-961.5-750-961.5z"/>
		</g>
	</g>
	<g transform="translate(440,640) scale(0.08,0.08)">
		<g transform="">
			<path class="st0" d="M-961.5-788.5c0,42.9,0,123.2,0,171.5c0,23.9,0,40,0,40v17.5v29.5v30h423v-30v-29.5V-577c0,0,0-16.2,0-40
				c0-51.3,0-137.8,0-171.5c0-116.8-94.7-211.5-211.5-211.5C-866.8-1000-961.5-905.3-961.5-788.5z"/>
		</g>
	</g>
	<g transform="translate(480,640) scale(0.08,0.08)">
		<g transform="">
			<path class="st0" d="M-538.5-711.5c0-42.9,0-123.2,0-171.5c0-23.9,0-40,0-40v-17.5V-970v-30h-423v30v29.5v17.5c0,0,0,16.2,0,40
				c0,51.3,0,137.8,0,171.5c0,116.8,94.7,211.5,211.5,211.5C-633.2-500-538.5-594.7-538.5-711.5z"/>
		</g>
	</g>
	<g transform="translate(520,640) scale(0.08,0.08)">
		<g transform="">
			<path class="st0" d="M-961.5-788.5c0,42.9,0,123.2,0,171.5c0,23.9,0,40,0,40v17.5v29.5v30h423v-30v-29.5V-577c0,0,0-16.2,0-40
				c0-51.3,0-137.8,0-171.5c0-116.8-94.7-211.5-211.5-211.5C-866.8-1000-961.5-905.3-961.5-788.5z"/>
		</g>
	</g>
	<g transform="translate(600,640) scale(0.08,0.08)">
		<g transform="">
			<path class="st0" d="M-538.5-711.5c0-42.9,0-123.2,0-171.5c0-23.9,0-40,0-40v-17.5V-970v-30h-423v30v29.5v17.5c0,0,0,16.2,0,40
				c0,51.3,0,137.8,0,171.5c0,116.8,94.7,211.5,211.5,211.5C-633.2-500-538.5-594.7-538.5-711.5z"/>
		</g>
	</g>
	<g transform="translate(640,640) scale(0.08,0.08)">
		<g transform="">
			<path class="st0" d="M-961.5-788.5c0,42.9,0,123.2,0,171.5c0,23.9,0,40,0,40v17.5v29.5v30h423v-30v-29.5V-577c0,0,0-16.2,0-40
				c0-51.3,0-137.8,0-171.5c0-116.8-94.7-211.5-211.5-211.5C-866.8-1000-961.5-905.3-961.5-788.5z"/>
		</g>
	</g>
	<g transform="translate(680,640) scale(0.08,0.08)">
		<g transform="">
			<path class="st0" d="M-538.5-711.5c0-42.9,0-123.2,0-171.5c0-23.9,0-40,0-40v-17.5V-970v-30h-423v30v29.5v17.5c0,0,0,16.2,0,40
				c0,51.3,0,137.8,0,171.5c0,116.8,94.7,211.5,211.5,211.5C-633.2-500-538.5-594.7-538.5-711.5z"/>
		</g>
	</g>
	<g transform="translate(720,640) scale(0.08,0.08)">
		<g transform="">
			<path class="st0" d="M-750-961.5c116.8,0,211.5,94.7,211.5,211.5c0,116.8-94.7,211.5-211.5,211.5
				c-116.8,0-211.5-94.7-211.5-211.5C-961.5-866.8-866.8-961.5-750-961.5z"/>
		</g>
	</g>
	<g transform="translate(760,640) scale(0.08,0.08)">
		<g transform="">
			<path class="st0" d="M-538.5-711.5c0-42.9,0-123.2,0-171.5c0-23.9,0-40,0-40v-17.5V-970v-30h-423v30v29.5v17.5c0,0,0,16.2,0,40
				c0,51.3,0,137.8,0,171.5c0,116.8,94.7,211.5,211.5,211.5C-633.2-500-538.5-594.7-538.5-711.5z"/>
		</g>
	</g>
	<g transform="translate(800,640) scale(0.08,0.08)">
		<g transform="">
			<path class="st0" d="M-961.5-788.5c0,42.9,0,123.2,0,171.5c0,23.9,0,40,0,40v17.5v29.5v30h423v-30v-29.5V-577c0,0,0-16.2,0-40
				c0-51.3,0-137.8,0-171.5c0-116.8-94.7-211.5-211.5-211.5C-866.8-1000-961.5-905.3-961.5-788.5z"/>
		</g>
	</g>
	<g transform="translate(880,640) scale(0.08,0.08)">
		<g transform="">
			<polygon class="st0" points="-961.5,-750 -961.5,-500 -538.5,-500 -538.5,-750 -538.5,-1000 -961.5,-1000 			"/>
		</g>
	</g>
	<g transform="translate(920,640) scale(0.08,0.08)">
		<g transform="">
			<path class="st0" d="M-961.5-788.5c0,42.9,0,123.2,0,171.5c0,23.9,0,40,0,40v17.5v29.5v30h423v-30v-29.5V-577c0,0,0-16.2,0-40
				c0-51.3,0-137.8,0-171.5c0-116.8-94.7-211.5-211.5-211.5C-866.8-1000-961.5-905.3-961.5-788.5z"/>
		</g>
	</g>
	<g transform="translate(320,680) scale(0.08,0.08)">
		<g transform="">
			<path class="st0" d="M-961.5-788.5c0,42.9,0,123.2,0,171.5c0,23.9,0,40,0,40v17.5v29.5v30h423v-30v-29.5V-577c0,0,0-16.2,0-40
				c0-51.3,0-137.8,0-171.5c0-116.8-94.7-211.5-211.5-211.5C-866.8-1000-961.5-905.3-961.5-788.5z"/>
		</g>
	</g>
	<g transform="translate(440,680) scale(0.08,0.08)">
		<g transform="">
			<path class="st0" d="M-538.5-711.5c0-42.9,0-123.2,0-171.5c0-23.9,0-40,0-40v-17.5V-970v-30h-423v30v29.5v17.5c0,0,0,16.2,0,40
				c0,51.3,0,137.8,0,171.5c0,116.8,94.7,211.5,211.5,211.5C-633.2-500-538.5-594.7-538.5-711.5z"/>
		</g>
	</g>
	<g transform="translate(520,680) scale(0.08,0.08)">
		<g transform="">
			<path class="st0" d="M-538.5-711.5c0-42.9,0-123.2,0-171.5c0-23.9,0-40,0-40v-17.5V-970v-30h-423v30v29.5v17.5c0,0,0,16.2,0,40
				c0,51.3,0,137.8,0,171.5c0,116.8,94.7,211.5,211.5,211.5C-633.2-500-538.5-594.7-538.5-711.5z"/>
		</g>
	</g>
	<g transform="translate(640,680) scale(0.08,0.08)">
		<g transform="">
			<polygon class="st0" points="-961.5,-750 -961.5,-500 -538.5,-500 -538.5,-750 -538.5,-1000 -961.5,-1000 			"/>
		</g>
	</g>
	<g transform="translate(800,680) scale(0.08,0.08)">
		<g transform="">
			<polygon class="st0" points="-961.5,-750 -961.5,-500 -538.5,-500 -538.5,-750 -538.5,-1000 -961.5,-1000 			"/>
		</g>
	</g>
	<g transform="translate(880,680) scale(0.08,0.08)">
		<g transform="">
			<path class="st0" d="M-538.5-711.5c0-42.9,0-123.2,0-171.5c0-23.9,0-40,0-40v-17.5V-970v-30h-423v30v29.5v17.5c0,0,0,16.2,0,40
				c0,51.3,0,137.8,0,171.5c0,116.8,94.7,211.5,211.5,211.5C-633.2-500-538.5-594.7-538.5-711.5z"/>
		</g>
	</g>
	<g transform="translate(920,680) scale(0.08,0.08)">
		<g transform="">
			<path class="st0" d="M-538.5-711.5c0-42.9,0-123.2,0-171.5c0-23.9,0-40,0-40v-17.5V-970v-30h-423v30v29.5v17.5c0,0,0,16.2,0,40
				c0,51.3,0,137.8,0,171.5c0,116.8,94.7,211.5,211.5,211.5C-633.2-500-538.5-594.7-538.5-711.5z"/>
		</g>
	</g>
	<g transform="translate(320,720) scale(0.08,0.08)">
		<g transform="">
			<polygon class="st0" points="-961.5,-750 -961.5,-500 -538.5,-500 -538.5,-750 -538.5,-1000 -961.5,-1000 			"/>
		</g>
	</g>
	<g transform="translate(400,720) scale(0.08,0.08)">
		<g transform="">
			<path class="st0" d="M-750-961.5c116.8,0,211.5,94.7,211.5,211.5c0,116.8-94.7,211.5-211.5,211.5
				c-116.8,0-211.5-94.7-211.5-211.5C-961.5-866.8-866.8-961.5-750-961.5z"/>
		</g>
	</g>
	<g transform="translate(480,720) scale(0.08,0.08)">
		<g transform="">
			<path class="st0" d="M-750-961.5c116.8,0,211.5,94.7,211.5,211.5c0,116.8-94.7,211.5-211.5,211.5
				c-116.8,0-211.5-94.7-211.5-211.5C-961.5-866.8-866.8-961.5-750-961.5z"/>
		</g>
	</g>
	<g transform="translate(560,720) scale(0.08,0.08)">
		<g transform="">
			<path class="st0" d="M-750-961.5c116.8,0,211.5,94.7,211.5,211.5c0,116.8-94.7,211.5-211.5,211.5
				c-116.8,0-211.5-94.7-211.5-211.5C-961.5-866.8-866.8-961.5-750-961.5z"/>
		</g>
	</g>
	<g transform="translate(640,720) scale(0.08,0.08)">
		<g transform="">
			<polygon class="st0" points="-961.5,-750 -961.5,-500 -538.5,-500 -538.5,-750 -538.5,-1000 -961.5,-1000 			"/>
		</g>
	</g>
	<g transform="translate(720,720) scale(0.08,0.08)">
		<g transform="">
			<path class="st0" d="M-750-961.5c116.8,0,211.5,94.7,211.5,211.5c0,116.8-94.7,211.5-211.5,211.5
				c-116.8,0-211.5-94.7-211.5-211.5C-961.5-866.8-866.8-961.5-750-961.5z"/>
		</g>
	</g>
	<g transform="translate(800,720) scale(0.08,0.08)">
		<g transform="">
			<polygon class="st0" points="-961.5,-750 -961.5,-500 -538.5,-500 -538.5,-750 -538.5,-1000 -961.5,-1000 			"/>
		</g>
	</g>
	<g transform="translate(960,720) scale(0.08,0.08)">
		<g transform="">
			<path class="st0" d="M-750-961.5c116.8,0,211.5,94.7,211.5,211.5c0,116.8-94.7,211.5-211.5,211.5
				c-116.8,0-211.5-94.7-211.5-211.5C-961.5-866.8-866.8-961.5-750-961.5z"/>
		</g>
	</g>
	<g transform="translate(320,760) scale(0.08,0.08)">
		<g transform="">
			<polygon class="st0" points="-961.5,-750 -961.5,-500 -538.5,-500 -538.5,-750 -538.5,-1000 -961.5,-1000 			"/>
		</g>
	</g>
	<g transform="translate(360,760) scale(0.08,0.08)">
		<g transform="">
			<path class="st0" d="M-961.5-788.5c0,42.9,0,123.2,0,171.5c0,23.9,0,40,0,40v17.5v29.5v30h423v-30v-29.5V-577c0,0,0-16.2,0-40
				c0-51.3,0-137.8,0-171.5c0-116.8-94.7-211.5-211.5-211.5C-866.8-1000-961.5-905.3-961.5-788.5z"/>
		</g>
	</g>
	<g transform="translate(440,760) scale(0.08,0.08)">
		<g transform="">
			<path class="st0" d="M-961.5-788.5c0,42.9,0,123.2,0,171.5c0,23.9,0,40,0,40v17.5v29.5v30h423v-30v-29.5V-577c0,0,0-16.2,0-40
				c0-51.3,0-137.8,0-171.5c0-116.8-94.7-211.5-211.5-211.5C-866.8-1000-961.5-905.3-961.5-788.5z"/>
		</g>
	</g>
	<g transform="translate(520,760) scale(0.08,0.08)">
		<g transform="">
			<path class="st0" d="M-961.5-788.5c0,42.9,0,123.2,0,171.5c0,23.9,0,40,0,40v17.5v29.5v30h423v-30v-29.5V-577c0,0,0-16.2,0-40
				c0-51.3,0-137.8,0-171.5c0-116.8-94.7-211.5-211.5-211.5C-866.8-1000-961.5-905.3-961.5-788.5z"/>
		</g>
	</g>
	<g transform="translate(600,760) scale(0.08,0.08)">
		<g transform="">
			<path class="st0" d="M-961.5-788.5c0,42.9,0,123.2,0,171.5c0,23.9,0,40,0,40v17.5v29.5v30h423v-30v-29.5V-577c0,0,0-16.2,0-40
				c0-51.3,0-137.8,0-171.5c0-116.8-94.7-211.5-211.5-211.5C-866.8-1000-961.5-905.3-961.5-788.5z"/>
		</g>
	</g>
	<g transform="translate(640,760) scale(0.08,0.08)">
		<g transform="">
			<polygon class="st0" points="-961.5,-750 -961.5,-500 -538.5,-500 -538.5,-750 -538.5,-1000 -961.5,-1000 			"/>
		</g>
	</g>
	<g transform="translate(800,760) scale(0.08,0.08)">
		<g transform="">
			<polygon class="st0" points="-961.5,-750 -961.5,-500 -538.5,-500 -538.5,-750 -538.5,-1000 -961.5,-1000 			"/>
		</g>
	</g>
	<g transform="translate(320,800) scale(0.08,0.08)">
		<g transform="">
			<polygon class="st0" points="-961.5,-750 -961.5,-500 -538.5,-500 -538.5,-750 -538.5,-1000 -961.5,-1000 			"/>
		</g>
	</g>
	<g transform="translate(360,800) scale(0.08,0.08)">
		<g transform="">
			<polygon class="st0" points="-961.5,-750 -961.5,-500 -538.5,-500 -538.5,-750 -538.5,-1000 -961.5,-1000 			"/>
		</g>
	</g>
	<g transform="translate(440,800) scale(0.08,0.08)">
		<g transform="">
			<path class="st0" d="M-538.5-711.5c0-42.9,0-123.2,0-171.5c0-23.9,0-40,0-40v-17.5V-970v-30h-423v30v29.5v17.5c0,0,0,16.2,0,40
				c0,51.3,0,137.8,0,171.5c0,116.8,94.7,211.5,211.5,211.5C-633.2-500-538.5-594.7-538.5-711.5z"/>
		</g>
	</g>
	<g transform="translate(520,800) scale(0.08,0.08)">
		<g transform="">
			<polygon class="st0" points="-961.5,-750 -961.5,-500 -538.5,-500 -538.5,-750 -538.5,-1000 -961.5,-1000 			"/>
		</g>
	</g>
	<g transform="translate(600,800) scale(0.08,0.08)">
		<g transform="">
			<path class="st0" d="M-538.5-711.5c0-42.9,0-123.2,0-171.5c0-23.9,0-40,0-40v-17.5V-970v-30h-423v30v29.5v17.5c0,0,0,16.2,0,40
				c0,51.3,0,137.8,0,171.5c0,116.8,94.7,211.5,211.5,211.5C-633.2-500-538.5-594.7-538.5-711.5z"/>
		</g>
	</g>
	<g transform="translate(640,800) scale(0.08,0.08)">
		<g transform="">
			<polygon class="st0" points="-961.5,-750 -961.5,-500 -538.5,-500 -538.5,-750 -538.5,-1000 -961.5,-1000 			"/>
		</g>
	</g>
	<g transform="translate(680,800) scale(0.08,0.08)">
		<g transform="">
			<path class="st0" d="M-750-961.5c116.8,0,211.5,94.7,211.5,211.5c0,116.8-94.7,211.5-211.5,211.5
				c-116.8,0-211.5-94.7-211.5-211.5C-961.5-866.8-866.8-961.5-750-961.5z"/>
		</g>
	</g>
	<g transform="translate(720,800) scale(0.08,0.08)">
		<g transform="">
			<path class="st0" d="M-961.5-788.5c0,42.9,0,123.2,0,171.5c0,23.9,0,40,0,40v17.5v29.5v30h423v-30v-29.5V-577c0,0,0-16.2,0-40
				c0-51.3,0-137.8,0-171.5c0-116.8-94.7-211.5-211.5-211.5C-866.8-1000-961.5-905.3-961.5-788.5z"/>
		</g>
	</g>
	<g transform="translate(760,800) scale(0.08,0.08)">
		<g transform="">
			<path class="st0" d="M-750-961.5c116.8,0,211.5,94.7,211.5,211.5c0,116.8-94.7,211.5-211.5,211.5
				c-116.8,0-211.5-94.7-211.5-211.5C-961.5-866.8-866.8-961.5-750-961.5z"/>
		</g>
	</g>
	<g transform="translate(800,800) scale(0.08,0.08)">
		<g transform="">
			<path class="st0" d="M-538.5-711.5c0-42.9,0-123.2,0-171.5c0-23.9,0-40,0-40v-17.5V-970v-30h-423v30v29.5v17.5c0,0,0,16.2,0,40
				c0,51.3,0,137.8,0,171.5c0,116.8,94.7,211.5,211.5,211.5C-633.2-500-538.5-594.7-538.5-711.5z"/>
		</g>
	</g>
	<g transform="translate(920,800) scale(0.08,0.08)">
		<g transform="">
			<path class="st0" d="M-961.5-788.5c0,42.9,0,123.2,0,171.5c0,23.9,0,40,0,40v17.5v29.5v30h423v-30v-29.5V-577c0,0,0-16.2,0-40
				c0-51.3,0-137.8,0-171.5c0-116.8-94.7-211.5-211.5-211.5C-866.8-1000-961.5-905.3-961.5-788.5z"/>
		</g>
	</g>
	<g transform="translate(960,800) scale(0.08,0.08)">
		<g transform="">
			<path class="st0" d="M-961.5-788.5c0,42.9,0,123.2,0,171.5c0,23.9,0,40,0,40v17.5v29.5v30h423v-30v-29.5V-577c0,0,0-16.2,0-40
				c0-51.3,0-137.8,0-171.5c0-116.8-94.7-211.5-211.5-211.5C-866.8-1000-961.5-905.3-961.5-788.5z"/>
		</g>
	</g>
	<g transform="translate(320,840) scale(0.08,0.08)">
		<g transform="">
			<path class="st0" d="M-538.5-711.5c0-42.9,0-123.2,0-171.5c0-23.9,0-40,0-40v-17.5V-970v-30h-423v30v29.5v17.5c0,0,0,16.2,0,40
				c0,51.3,0,137.8,0,171.5c0,116.8,94.7,211.5,211.5,211.5C-633.2-500-538.5-594.7-538.5-711.5z"/>
		</g>
	</g>
	<g transform="translate(360,840) scale(0.08,0.08)">
		<g transform="">
			<polygon class="st0" points="-961.5,-750 -961.5,-500 -538.5,-500 -538.5,-750 -538.5,-1000 -961.5,-1000 			"/>
		</g>
	</g>
	<g transform="translate(480,840) scale(0.08,0.08)">
		<g transform="">
			<path class="st0" d="M-750-961.5c116.8,0,211.5,94.7,211.5,211.5c0,116.8-94.7,211.5-211.5,211.5
				c-116.8,0-211.5-94.7-211.5-211.5C-961.5-866.8-866.8-961.5-750-961.5z"/>
		</g>
	</g>
	<g transform="translate(520,840) scale(0.08,0.08)">
		<g transform="">
			<polygon class="st0" points="-961.5,-750 -961.5,-500 -538.5,-500 -538.5,-750 -538.5,-1000 -961.5,-1000 			"/>
		</g>
	</g>
	<g transform="translate(560,840) scale(0.08,0.08)">
		<g transform="">
			<path class="st0" d="M-750-961.5c116.8,0,211.5,94.7,211.5,211.5c0,116.8-94.7,211.5-211.5,211.5
				c-116.8,0-211.5-94.7-211.5-211.5C-961.5-866.8-866.8-961.5-750-961.5z"/>
		</g>
	</g>
	<g transform="translate(640,840) scale(0.08,0.08)">
		<g transform="">
			<polygon class="st0" points="-961.5,-750 -961.5,-500 -538.5,-500 -538.5,-750 -538.5,-1000 -961.5,-1000 			"/>
		</g>
	</g>
	<g transform="translate(720,840) scale(0.08,0.08)">
		<g transform="">
			<path class="st0" d="M-538.5-711.5c0-42.9,0-123.2,0-171.5c0-23.9,0-40,0-40v-17.5V-970v-30h-423v30v29.5v17.5c0,0,0,16.2,0,40
				c0,51.3,0,137.8,0,171.5c0,116.8,94.7,211.5,211.5,211.5C-633.2-500-538.5-594.7-538.5-711.5z"/>
		</g>
	</g>
	<g transform="translate(920,840) scale(0.08,0.08)">
		<g transform="">
			<polygon class="st0" points="-961.5,-750 -961.5,-500 -538.5,-500 -538.5,-750 -538.5,-1000 -961.5,-1000 			"/>
		</g>
	</g>
	<g transform="translate(960,840) scale(0.08,0.08)">
		<g transform="">
			<polygon class="st0" points="-961.5,-750 -961.5,-500 -538.5,-500 -538.5,-750 -538.5,-1000 -961.5,-1000 			"/>
		</g>
	</g>
	<g transform="translate(360,880) scale(0.08,0.08)">
		<g transform="">
			<path class="st0" d="M-538.5-711.5c0-42.9,0-123.2,0-171.5c0-23.9,0-40,0-40v-17.5V-970v-30h-423v30v29.5v17.5c0,0,0,16.2,0,40
				c0,51.3,0,137.8,0,171.5c0,116.8,94.7,211.5,211.5,211.5C-633.2-500-538.5-594.7-538.5-711.5z"/>
		</g>
	</g>
	<g transform="translate(400,880) scale(0.08,0.08)">
		<g transform="">
			<path class="st0" d="M-750-961.5c116.8,0,211.5,94.7,211.5,211.5c0,116.8-94.7,211.5-211.5,211.5
				c-116.8,0-211.5-94.7-211.5-211.5C-961.5-866.8-866.8-961.5-750-961.5z"/>
		</g>
	</g>
	<g transform="translate(440,880) scale(0.08,0.08)">
		<g transform="">
			<path class="st0" d="M-961.5-788.5c0,42.9,0,123.2,0,171.5c0,23.9,0,40,0,40v17.5v29.5v30h423v-30v-29.5V-577c0,0,0-16.2,0-40
				c0-51.3,0-137.8,0-171.5c0-116.8-94.7-211.5-211.5-211.5C-866.8-1000-961.5-905.3-961.5-788.5z"/>
		</g>
	</g>
	<g transform="translate(520,880) scale(0.08,0.08)">
		<g transform="">
			<polygon class="st0" points="-961.5,-750 -961.5,-500 -538.5,-500 -538.5,-750 -538.5,-1000 -961.5,-1000 			"/>
		</g>
	</g>
	<g transform="translate(640,880) scale(0.08,0.08)">
		<g transform="">
			<path class="st0" d="M-538.5-711.5c0-42.9,0-123.2,0-171.5c0-23.9,0-40,0-40v-17.5V-970v-30h-423v30v29.5v17.5c0,0,0,16.2,0,40
				c0,51.3,0,137.8,0,171.5c0,116.8,94.7,211.5,211.5,211.5C-633.2-500-538.5-594.7-538.5-711.5z"/>
		</g>
	</g>
	<g transform="translate(680,880) scale(0.08,0.08)">
		<g transform="">
			<path class="st0" d="M-750-961.5c116.8,0,211.5,94.7,211.5,211.5c0,116.8-94.7,211.5-211.5,211.5
				c-116.8,0-211.5-94.7-211.5-211.5C-961.5-866.8-866.8-961.5-750-961.5z"/>
		</g>
	</g>
	<g transform="translate(800,880) scale(0.08,0.08)">
		<g transform="">
			<path class="st0" d="M-961.5-788.5c0,42.9,0,123.2,0,171.5c0,23.9,0,40,0,40v17.5v29.5v30h423v-30v-29.5V-577c0,0,0-16.2,0-40
				c0-51.3,0-137.8,0-171.5c0-116.8-94.7-211.5-211.5-211.5C-866.8-1000-961.5-905.3-961.5-788.5z"/>
		</g>
	</g>
	<g transform="translate(840,880) scale(0.08,0.08)">
		<g transform="">
			<path class="st0" d="M-750-961.5c116.8,0,211.5,94.7,211.5,211.5c0,116.8-94.7,211.5-211.5,211.5
				c-116.8,0-211.5-94.7-211.5-211.5C-961.5-866.8-866.8-961.5-750-961.5z"/>
		</g>
	</g>
	<g transform="translate(880,880) scale(0.08,0.08)">
		<g transform="">
			<path class="st0" d="M-961.5-788.5c0,42.9,0,123.2,0,171.5c0,23.9,0,40,0,40v17.5v29.5v30h423v-30v-29.5V-577c0,0,0-16.2,0-40
				c0-51.3,0-137.8,0-171.5c0-116.8-94.7-211.5-211.5-211.5C-866.8-1000-961.5-905.3-961.5-788.5z"/>
		</g>
	</g>
	<g transform="translate(920,880) scale(0.08,0.08)">
		<g transform="">
			<polygon class="st0" points="-961.5,-750 -961.5,-500 -538.5,-500 -538.5,-750 -538.5,-1000 -961.5,-1000 			"/>
		</g>
	</g>
	<g transform="translate(960,880) scale(0.08,0.08)">
		<g transform="">
			<polygon class="st0" points="-961.5,-750 -961.5,-500 -538.5,-500 -538.5,-750 -538.5,-1000 -961.5,-1000 			"/>
		</g>
	</g>
	<g transform="translate(440,920) scale(0.08,0.08)">
		<g transform="">
			<polygon class="st0" points="-961.5,-750 -961.5,-500 -538.5,-500 -538.5,-750 -538.5,-1000 -961.5,-1000 			"/>
		</g>
	</g>
	<g transform="translate(480,920) scale(0.08,0.08)">
		<g transform="">
			<path class="st0" d="M-961.5-788.5c0,42.9,0,123.2,0,171.5c0,23.9,0,40,0,40v17.5v29.5v30h423v-30v-29.5V-577c0,0,0-16.2,0-40
				c0-51.3,0-137.8,0-171.5c0-116.8-94.7-211.5-211.5-211.5C-866.8-1000-961.5-905.3-961.5-788.5z"/>
		</g>
	</g>
	<g transform="translate(520,920) scale(0.08,0.08)">
		<g transform="">
			<polygon class="st0" points="-961.5,-750 -961.5,-500 -538.5,-500 -538.5,-750 -538.5,-1000 -961.5,-1000 			"/>
		</g>
	</g>
	<g transform="translate(760,920) scale(0.08,0.08)">
		<g transform="">
			<path class="st0" d="M-750-961.5c116.8,0,211.5,94.7,211.5,211.5c0,116.8-94.7,211.5-211.5,211.5
				c-116.8,0-211.5-94.7-211.5-211.5C-961.5-866.8-866.8-961.5-750-961.5z"/>
		</g>
	</g>
	<g transform="translate(800,920) scale(0.08,0.08)">
		<g transform="">
			<path class="st0" d="M-538.5-711.5c0-42.9,0-123.2,0-171.5c0-23.9,0-40,0-40v-17.5V-970v-30h-423v30v29.5v17.5c0,0,0,16.2,0,40
				c0,51.3,0,137.8,0,171.5c0,116.8,94.7,211.5,211.5,211.5C-633.2-500-538.5-594.7-538.5-711.5z"/>
		</g>
	</g>
	<g transform="translate(880,920) scale(0.08,0.08)">
		<g transform="">
			<path class="st0" d="M-538.5-711.5c0-42.9,0-123.2,0-171.5c0-23.9,0-40,0-40v-17.5V-970v-30h-423v30v29.5v17.5c0,0,0,16.2,0,40
				c0,51.3,0,137.8,0,171.5c0,116.8,94.7,211.5,211.5,211.5C-633.2-500-538.5-594.7-538.5-711.5z"/>
		</g>
	</g>
	<g transform="translate(920,920) scale(0.08,0.08)">
		<g transform="">
			<path class="st0" d="M-538.5-711.5c0-42.9,0-123.2,0-171.5c0-23.9,0-40,0-40v-17.5V-970v-30h-423v30v29.5v17.5c0,0,0,16.2,0,40
				c0,51.3,0,137.8,0,171.5c0,116.8,94.7,211.5,211.5,211.5C-633.2-500-538.5-594.7-538.5-711.5z"/>
		</g>
	</g>
	<g transform="translate(960,920) scale(0.08,0.08)">
		<g transform="">
			<polygon class="st0" points="-961.5,-750 -961.5,-500 -538.5,-500 -538.5,-750 -538.5,-1000 -961.5,-1000 			"/>
		</g>
	</g>
	<g transform="translate(320,960) scale(0.08,0.08)">
		<g transform="">
			<path class="st0" d="M-750-961.5c116.8,0,211.5,94.7,211.5,211.5c0,116.8-94.7,211.5-211.5,211.5
				c-116.8,0-211.5-94.7-211.5-211.5C-961.5-866.8-866.8-961.5-750-961.5z"/>
		</g>
	</g>
	<g transform="translate(360,960) scale(0.08,0.08)">
		<g transform="">
			<path class="st0" d="M-750-961.5c116.8,0,211.5,94.7,211.5,211.5c0,116.8-94.7,211.5-211.5,211.5
				c-116.8,0-211.5-94.7-211.5-211.5C-961.5-866.8-866.8-961.5-750-961.5z"/>
		</g>
	</g>
	<g transform="translate(440,960) scale(0.08,0.08)">
		<g transform="">
			<path class="st0" d="M-538.5-711.5c0-42.9,0-123.2,0-171.5c0-23.9,0-40,0-40v-17.5V-970v-30h-423v30v29.5v17.5c0,0,0,16.2,0,40
				c0,51.3,0,137.8,0,171.5c0,116.8,94.7,211.5,211.5,211.5C-633.2-500-538.5-594.7-538.5-711.5z"/>
		</g>
	</g>
	<g transform="translate(480,960) scale(0.08,0.08)">
		<g transform="">
			<path class="st0" d="M-538.5-711.5c0-42.9,0-123.2,0-171.5c0-23.9,0-40,0-40v-17.5V-970v-30h-423v30v29.5v17.5c0,0,0,16.2,0,40
				c0,51.3,0,137.8,0,171.5c0,116.8,94.7,211.5,211.5,211.5C-633.2-500-538.5-594.7-538.5-711.5z"/>
		</g>
	</g>
	<g transform="translate(520,960) scale(0.08,0.08)">
		<g transform="">
			<path class="st0" d="M-538.5-711.5c0-42.9,0-123.2,0-171.5c0-23.9,0-40,0-40v-17.5V-970v-30h-423v30v29.5v17.5c0,0,0,16.2,0,40
				c0,51.3,0,137.8,0,171.5c0,116.8,94.7,211.5,211.5,211.5C-633.2-500-538.5-594.7-538.5-711.5z"/>
		</g>
	</g>
	<g transform="translate(640,960) scale(0.08,0.08)">
		<g transform="">
			<path class="st0" d="M-750-961.5c116.8,0,211.5,94.7,211.5,211.5c0,116.8-94.7,211.5-211.5,211.5
				c-116.8,0-211.5-94.7-211.5-211.5C-961.5-866.8-866.8-961.5-750-961.5z"/>
		</g>
	</g>
	<g transform="translate(680,960) scale(0.08,0.08)">
		<g transform="">
			<path class="st0" d="M-750-961.5c116.8,0,211.5,94.7,211.5,211.5c0,116.8-94.7,211.5-211.5,211.5
				c-116.8,0-211.5-94.7-211.5-211.5C-961.5-866.8-866.8-961.5-750-961.5z"/>
		</g>
	</g>
	<g transform="translate(840,960) scale(0.08,0.08)">
		<g transform="">
			<path class="st0" d="M-750-961.5c116.8,0,211.5,94.7,211.5,211.5c0,116.8-94.7,211.5-211.5,211.5
				c-116.8,0-211.5-94.7-211.5-211.5C-961.5-866.8-866.8-961.5-750-961.5z"/>
		</g>
	</g>
	<g transform="translate(960,960) scale(0.08,0.08)">
		<g transform="">
			<path class="st0" d="M-538.5-711.5c0-42.9,0-123.2,0-171.5c0-23.9,0-40,0-40v-17.5V-970v-30h-423v30v29.5v17.5c0,0,0,16.2,0,40
				c0,51.3,0,137.8,0,171.5c0,116.8,94.7,211.5,211.5,211.5C-633.2-500-538.5-594.7-538.5-711.5z"/>
		</g>
	</g>
	<g transform="translate(0,0) scale(2.8, 2.8)">
		<g transform="">
			<g>
				<path class="st1" d="M37.3-13.6H5.6c-4.1,0-7.9,1.3-11,3.4c-2.4,1.7-4.4,3.9-5.8,6.4c-1.5,2.7-2.3,5.7-2.3,8.9v32.5
					C-13.6,48-5,56.4,5.6,56.4l15.9,0l15.9,0c10.6,0,19.1-8.4,19.1-18.8V5.2C56.4-5.2,47.8-13.6,37.3-13.6z"/>
				<path class="st0" d="M37.3-28.6H5.6l0,0C-9.9-28.6-23-18.4-27.2-4.4c-0.4,1.4-0.8,2.9-1,4.4c-0.3,1.7-0.4,3.4-0.4,5.1v32.5
					c0,18.6,15.3,33.8,34.1,33.8l15.9,0l15.9,0c18.8,0,34.1-15.1,34.1-33.8V5.2C71.4-13.4,56.1-28.6,37.3-28.6z M56.4,37.7
					c0,10.3-8.6,18.8-19.1,18.8l-15.9,0l-15.9,0C-5,56.4-13.6,48-13.6,37.7V5.2c0-3.2,0.8-6.3,2.3-8.9c1.4-2.6,3.4-4.8,5.8-6.4
					c3.1-2.1,6.9-3.4,11-3.4h31.7c10.6,0,19.1,8.4,19.1,18.8V37.7z"/>
			</g>
		</g>
	</g>
	<g transform="translate(720,0) scale(2.8, 2.8)">
		<g transform="">
			<g>
				<path class="st1" d="M37.3-13.6H5.6c-4.1,0-7.9,1.3-11,3.4c-2.4,1.7-4.4,3.9-5.8,6.4c-1.5,2.7-2.3,5.7-2.3,8.9v32.5
					C-13.6,48-5,56.4,5.6,56.4l15.9,0l15.9,0c10.6,0,19.1-8.4,19.1-18.8V5.2C56.4-5.2,47.8-13.6,37.3-13.6z"/>
				<path class="st0" d="M37.3-28.6H5.6l0,0C-9.9-28.6-23-18.4-27.2-4.4c-0.4,1.4-0.8,2.9-1,4.4c-0.3,1.7-0.4,3.4-0.4,5.1v32.5
					c0,18.6,15.3,33.8,34.1,33.8l15.9,0l15.9,0c18.8,0,34.1-15.1,34.1-33.8V5.2C71.4-13.4,56.1-28.6,37.3-28.6z M56.4,37.7
					c0,10.3-8.6,18.8-19.1,18.8l-15.9,0l-15.9,0C-5,56.4-13.6,48-13.6,37.7V5.2c0-3.2,0.8-6.3,2.3-8.9c1.4-2.6,3.4-4.8,5.8-6.4
					c3.1-2.1,6.9-3.4,11-3.4h31.7c10.6,0,19.1,8.4,19.1,18.8V37.7z"/>
			</g>
		</g>
	</g>
	<g transform="translate(0,720) scale(2.8, 2.8)">
		<g transform="">
			<g>
				<path class="st1" d="M37.3-13.6H5.6c-4.1,0-7.9,1.3-11,3.4c-2.4,1.7-4.4,3.9-5.8,6.4c-1.5,2.7-2.3,5.7-2.3,8.9v32.5
					C-13.6,48-5,56.4,5.6,56.4l15.9,0l15.9,0c10.6,0,19.1-8.4,19.1-18.8V5.2C56.4-5.2,47.8-13.6,37.3-13.6z"/>
				<path class="st0" d="M37.3-28.6H5.6l0,0C-9.9-28.6-23-18.4-27.2-4.4c-0.4,1.4-0.8,2.9-1,4.4c-0.3,1.7-0.4,3.4-0.4,5.1v32.5
					c0,18.6,15.3,33.8,34.1,33.8l15.9,0l15.9,0c18.8,0,34.1-15.1,34.1-33.8V5.2C71.4-13.4,56.1-28.6,37.3-28.6z M56.4,37.7
					c0,10.3-8.6,18.8-19.1,18.8l-15.9,0l-15.9,0C-5,56.4-13.6,48-13.6,37.7V5.2c0-3.2,0.8-6.3,2.3-8.9c1.4-2.6,3.4-4.8,5.8-6.4
					c3.1-2.1,6.9-3.4,11-3.4h31.7c10.6,0,19.1,8.4,19.1,18.8V37.7z"/>
			</g>
		</g>
	</g>
	<g transform="translate(80,80) scale(1.2, 1.2)">
		<g transform="">
			<rect x="-66.7" y="-66.7" class="st0" width="100" height="100"/>
		</g>
	</g>
	<g transform="translate(800,80) scale(1.2, 1.2)">
		<g transform="">
			<rect x="-66.7" y="-66.7" class="st0" width="100" height="100"/>
		</g>
	</g>
	<g transform="translate(80,800) scale(1.2, 1.2)">
		<g transform="">
			<rect x="-66.7" y="-66.7" class="st0" width="100" height="100"/>
		</g>
	</g>
</g>
</svg>
